<svg xmlns="http://www.w3.org/2000/svg" version="1.1" xmlns:xlink="http://www.w3.org/1999/xlink" xmlns:svgjs="http://svgjs.dev/svgjs" width="1000" height="207" viewBox="0 0 1000 207"><g transform="matrix(1,0,0,1,-0.6060606060606233,0.11538296892857147)"><svg viewBox="0 0 396 82" data-background-color="#ffffff" preserveAspectRatio="xMidYMid meet" height="207" width="1000" xmlns="http://www.w3.org/2000/svg" xmlns:xlink="http://www.w3.org/1999/xlink"><g id="tight-bounds" transform="matrix(1,0,0,1,0.2400000000000091,-0.045707263053827774)"><svg viewBox="0 0 395.52 82.09141452610766" height="82.09141452610766" width="395.52"><g><svg viewBox="0 0 561.282786829629 116.496" height="82.09141452610766" width="395.52"><g><svg viewBox="0 0 561.282786829629 116.496" height="116.496" width="561.282786829629"><g id="textblocktransform"><svg viewBox="0 0 561.282786829629 116.496" height="116.496" width="561.282786829629" id="textblock"><g><svg viewBox="0 0 561.282786829629 116.496" height="116.496" width="561.282786829629"><g><svg><g></g><g></g></svg></g><g><svg><g></g><g><svg></svg></g></svg></g><g id="text-0"><svg viewBox="0 0 561.282786829629 116.496" height="116.496" width="561.282786829629"><g><svg xmlns="http://www.w3.org/2000/svg" xmlns:xlink="http://www.w3.org/1999/xlink" version="1.1" x="0" y="0" viewBox="5.021 17.232 90 68.97300000000001" enable-background="new 0 0 100 100" xml:space="preserve" height="116.496" width="152.01078682962896" class="icon-_$-0" data-fill-palette-color="accent" id="_$-0"><g fill="#ef85d1" data-fill-palette-color="accent"><path d="M80.609 35.165l12.494 1.794 0.291-0.903-26.207-13.73-16.664-4.944-0.552-0.15-0.454 0.15-16.75 4.979L6.645 36.056l0.29 0.903L19.397 35.2 5.021 50.921l15.154 8.668v9.396 0.149l29.343 16.784 0.503 0.287 0.502-0.287 29.101-16.646 0.242-0.139v-0.15-9.395l15.155-8.668L80.609 35.165zM78.902 67.324v0.555 0.555 0.144L50.523 84.811l-0.043 0.023V53.246l0.043 0.046 14.262 14.922 6.867-3.928 0.484-0.277 0.484-0.276 6.281-3.592V67.324L78.902 67.324zM46.206 19.368L28.641 29.415l-7.98 4.564-0.164 0.094 0 0-0.079 0.011L9.551 35.618l23.576-12.37L46.206 19.368zM53.827 19.363l13 3.85 23.659 12.405-10.863-1.533-0.08-0.011-0.164-0.094-5.898-3.375L53.827 19.363zM49.518 51.091l-0.071 0.041L21.61 34.545l16.345-9.349 11.563-6.614V51.091zM20.655 35.25l0.008-0.008 0.083-0.091 0.391 0.233 5.427 3.234 21.924 13.063 0.475 0.281 0.315 0.188-0.008 0.009-0.384 0.401L35.08 67.006l-5.724-3.273-0.485-0.276-0.485-0.276-7.25-4.147-0.481-0.274-0.481-0.275L6.542 50.684l13.633-14.908L20.655 35.25zM78.902 59.03l-7.25 4.146-0.483 0.277-0.485 0.277-5.724 3.273L51.156 52.562l-0.385-0.403-0.008-0.009 0.313-0.188 0.475-0.281 21.933-13.07 5.418-3.228 0.392-0.233 0.084 0.091 0.007 0.007 0.48 0.526 13.633 14.907L79.865 58.48l-0.48 0.274L78.902 59.03z" fill="#ef85d1" data-fill-palette-color="accent"></path></g></svg></g><g transform="matrix(1,0,0,1,165.76278682962896,5.098615901455773)"><svg width="395.52" viewBox="3 -35.5 133.94 36" height="106.29876819708845" data-palette-color="#f012be"><path d="M28.45-0.55Q28.55-0.35 28.55-0.15L28.55-0.15Q28.55 0.15 28.25 0.33 27.95 0.5 27.65 0.5L27.65 0.5Q27.25 0.5 27.05 0.05L27.05 0.05 24.15-9.45 7.55-9.55 4.45-0.2Q4.35 0.1 4.2 0.23 4.05 0.35 3.75 0.35L3.75 0.35Q3.4 0.35 3.2 0.18 3 0 3-0.25L3-0.25 3.05-0.55Q8.05-15.45 9.8-20.8L9.8-20.8 12.9-30.05Q13.9-33 14.63-34.25 15.35-35.5 16.25-35.5L16.25-35.5Q17.85-35.5 19.3-30.55L19.3-30.55Q20.2-27.45 21.18-24.28 22.15-21.1 23.15-17.8L23.15-17.8 25.3-10.85 26.85-10.85Q27.15-10.85 27.33-10.65 27.5-10.45 27.5-10.15L27.5-10.15Q27.5-9.85 27.33-9.65 27.15-9.45 26.8-9.45L26.8-9.45 25.75-9.45 28.45-0.55ZM8.05-11.05L23.7-10.9Q19.8-23.85 17.95-30.35L17.95-30.35Q17.5-32 16.98-33.05 16.45-34.1 16.15-34.1L16.15-34.1Q15.7-34.1 14.4-30.2L14.4-30.2 8.05-11.05ZM40.3-0.05Q39.4-0.05 38.75-0.5 38.1-0.95 37.55-1.95L37.55-1.95Q36.8-3.35 35.62-6.53 34.45-9.7 31.65-18.95L31.65-18.95Q30.75-21.85 29.8-25.3L29.8-25.3Q28.15-30.95 27.05-34.4L27.05-34.4Q26.95-34.7 26.95-34.75L26.95-34.75Q26.95-35.05 27.22-35.2 27.5-35.35 27.9-35.35L27.9-35.35Q28.35-35.35 28.5-34.95L28.5-34.95Q29.55-31.5 30.55-27.9L30.55-27.9Q32.15-22.3 33.15-19.1L33.15-19.1Q35.65-10.95 36.9-7.38 38.15-3.8 38.85-2.7 39.55-1.6 40.35-1.6L40.35-1.6Q41.15-1.65 41.8-2.73 42.45-3.8 43.52-7.18 44.6-10.55 47.05-19.1L47.05-19.1Q48-22.45 48-22.5L48-22.5Q50.05-29.55 51.4-34.75L51.4-34.75Q51.55-35.2 52.05-35.2L52.05-35.2Q52.85-35.2 52.9-34.55L52.9-34.55Q52.9-34.35 52.85-34.2L52.85-34.2Q51.75-30.1 49.9-23.6L49.9-23.6 48.65-19.15Q45.95-9.7 44.95-6.55 43.95-3.4 43.25-2L43.25-2Q42.3-0.05 40.3-0.05L40.3-0.05ZM74.45-1.85Q75.2-1.85 75.2-1.05L75.2-1.05Q75.2-0.25 74.45-0.25L74.45-0.25 59.2-0.5Q58.95-0.5 58.75-0.73 58.55-0.95 58.55-1.3L58.55-1.3Q58.55-2.05 59.3-2.05L59.3-2.05 66.09-1.95Q66.65-10.9 66.87-17.95 67.09-25 67.09-33.85L67.09-33.85Q64.84-33.8 60.8-33.45L60.8-33.45 59.05-33.35Q58.7-33.35 58.5-33.55 58.3-33.75 58.3-34.1L58.3-34.1Q58.3-34.75 59.09-34.9L59.09-34.9Q59.75-35 62.67-35.2 65.59-35.4 66.95-35.4L66.95-35.4Q72.7-35.4 74.5-35.1L74.5-35.1Q75.2-35 75.2-34.35L75.2-34.35Q75.2-33.95 74.95-33.75 74.7-33.55 74.34-33.6L74.34-33.6Q73.05-33.75 71.8-33.8 70.55-33.85 68.65-33.85L68.65-33.85Q68.65-24.35 68.45-17.32 68.25-10.3 67.65-1.95L67.65-1.95 74.45-1.85ZM104.79-2.35Q105.19-2.1 105.19-1.65L105.19-1.65Q105.19-1.3 104.94-1.03 104.69-0.75 104.39-0.75L104.39-0.75Q104.09-0.75 103.54-1.15L103.54-1.15 84.44-14.75 84.39-0.6Q84.39 0.2 83.54 0.2L83.54 0.2Q83.09 0.2 82.92-0.08 82.74-0.35 82.74-1.2L82.74-1.2 82.79-6.4Q82.89-10.8 82.89-15.15L82.89-15.15Q82.89-18.75 82.64-26.25L82.64-26.25 82.49-30.3 81.74-29.95Q81.54-29.85 81.39-29.85L81.39-29.85Q81.04-29.85 80.87-30.23 80.69-30.6 80.69-30.9L80.69-30.9Q80.69-31.3 81.29-31.6L81.29-31.6 82.44-32.1Q82.39-32.85 82.39-34.35L82.39-34.35Q82.39-35.05 83.14-35.05L83.14-35.05Q83.94-35.05 83.94-34.4L83.94-34.4 83.94-32.8Q86.74-34 88.72-34.48 90.69-34.95 92.94-34.95L92.94-34.95Q96.84-34.95 99.77-33.73 102.69-32.5 104.29-30.23 105.89-27.95 105.89-24.9L105.89-24.9Q105.89-21.5 103.97-19.2 102.04-16.9 98.94-15.78 95.84-14.65 92.29-14.65L92.29-14.65Q89.09-14.65 85.64-15.85L85.64-15.85 104.79-2.35ZM93.04-33.4Q90.89-33.4 88.79-32.83 86.69-32.25 83.99-31L83.99-31Q84.09-27.7 84.19-26L84.19-26Q84.39-21.2 84.44-17.8L84.44-17.8Q87.94-16.2 91.99-16.2L91.99-16.2Q95.14-16.2 97.97-17.18 100.79-18.15 102.57-20.08 104.34-22 104.34-24.8L104.34-24.8Q104.34-27.25 102.89-29.23 101.44-31.2 98.89-32.3 96.34-33.4 93.04-33.4L93.04-33.4ZM136.84-0.55Q136.94-0.35 136.94-0.15L136.94-0.15Q136.94 0.15 136.64 0.33 136.34 0.5 136.04 0.5L136.04 0.5Q135.64 0.5 135.44 0.05L135.44 0.05 132.54-9.45 115.94-9.55 112.84-0.2Q112.74 0.1 112.59 0.23 112.44 0.35 112.14 0.35L112.14 0.35Q111.79 0.35 111.59 0.18 111.39 0 111.39-0.25L111.39-0.25 111.44-0.55Q116.44-15.45 118.19-20.8L118.19-20.8 121.29-30.05Q122.29-33 123.02-34.25 123.74-35.5 124.64-35.5L124.64-35.5Q126.24-35.5 127.69-30.55L127.69-30.55Q128.59-27.45 129.57-24.28 130.54-21.1 131.54-17.8L131.54-17.8 133.69-10.85 135.24-10.85Q135.54-10.85 135.72-10.65 135.89-10.45 135.89-10.15L135.89-10.15Q135.89-9.85 135.72-9.65 135.54-9.45 135.19-9.45L135.19-9.45 134.14-9.45 136.84-0.55ZM116.44-11.05L132.09-10.9Q128.19-23.85 126.34-30.35L126.34-30.35Q125.89-32 125.37-33.05 124.84-34.1 124.54-34.1L124.54-34.1Q124.09-34.1 122.79-30.2L122.79-30.2 116.44-11.05Z" opacity="1" transform="matrix(1,0,0,1,0,0)" fill="#f012be" class="undefined-text-0" data-fill-palette-color="primary"></path></svg></g></svg></g></svg></g></svg></g></svg></g></svg></g><defs></defs></svg><rect width="395.52" height="82.09141452610766" fill="none" stroke="none" visibility="hidden"></rect></g></svg></g></svg>